<svg xmlns="http://www.w3.org/2000/svg" xmlns:ev="http://www.w3.org/2001/xml-events" xmlns:xlink="http://www.w3.org/1999/xlink" width="1151.299" height="460.667" class="st2" color-interpolation-filters="sRGB" viewBox="0 0 863.474 345.5" xml:space="preserve"><style type="text/css">.st1{fill:none;stroke:none;stroke-linecap:round;stroke-linejoin:round;stroke-width:.75}.st2{fill:none;fill-rule:evenodd;font-size:12px;overflow:visible;stroke-linecap:square;stroke-miterlimit:3}</style><g><title>Page-1</title><g id="shape1-1" transform="translate(0.375,-0.375)"><title>Sheet.1</title><rect width="862.724" height="344.75" x="0" y=".75" class="st1"/><switch><svg width="862.724" height="344.75" x="0" y=".75" preserveAspectRatio="none" viewBox="-0.708 -0.71 7186 2877"><clipPath id="mfid1"><rect id="mfid2" width="7186" height="2877" x="-.708" y="-.71"/></clipPath><g clip-path="url(#mfid1)"><mask id="mfid3"><rect width="7186" height="2877" fill="#fff" stroke="none"/></mask><mask id="mfid4" fill="#fff" stroke="none"><g><g mask="url(#mfid3)"><use xlink:href="#mfid2"/></g></g></mask><g mask="url(#mfid4)"><g><g fill="#50e6ff" transform="matrix(0.00065617, 0, 0, 0.00065617, 5543, 52)"><rect width="2500900" height="4302300" stroke="none"/><defs><path id="mfid5" d="M0,0 L2500900,0 L2500900,4302300 L0,4302300 Z"/></defs></g><g fill="#50e6ff" stroke="#50e6ff" stroke-linejoin="round" stroke-width="6350" transform="matrix(0.00065617, 0, 0, 0.00065617, 5543, 52)"><use fill="none" xlink:href="#mfid5"/></g></g></g><mask id="mfid6" fill="#fff" fill-rule="evenodd" stroke="none"><rect width="7186" height="2877" x="0" y="0"/></mask><g mask="url(#mfid6)"><g><g fill="none" stroke="#000" stroke-miterlimit="10"><g font-family="'Segoe UI Semibold',swiss,sans-serif" font-size="200" font-style="normal" font-weight="400"><text x="0 111 215 295 367 484 590 664 719" y="0" fill="#000" stroke="none" transform="matrix(1, 0, 0, 1, 6031.7, 727.18) translate(0,0)" xml:space="preserve">Partner</text></g></g></g></g><g mask="url(#mfid6)"><g><g fill="none" stroke="#000" stroke-miterlimit="10"><g font-family="'Segoe UI Semibold',swiss,sans-serif" font-size="200" font-style="normal" font-weight="400"><text x="0 124 230 347 418 524 598 653" y="0" fill="#000" stroke="none" transform="matrix(1, 0, 0, 1, 6064.7, 1167.2) translate(0,0)" xml:space="preserve">Center</text></g></g></g></g><g mask="url(#mfid6)"><g><g fill="none" stroke="#000" stroke-miterlimit="10"><g font-family="'Segoe UI Semibold',swiss,sans-serif" font-size="200" font-style="normal" font-weight="400"><text x="0 110 229 309 381 485 537" y="0" fill="#000" stroke="none" transform="matrix(1, 0, 0, 1, 6094.7, 1607.2) translate(0,0)" xml:space="preserve">Portal</text></g></g></g></g><g mask="url(#mfid6)"><g><g fill="none" stroke="#000" stroke-miterlimit="10"><g font-family="'Segoe UI',swiss,sans-serif" font-size="150" font-style="italic" font-weight="400"><text x="0 69 108 167 215 254 338 419 462 585 666 750 831 912 985 1114 1187 1271 1319" y="0" fill="#000" stroke="none" transform="matrix(1, 0, 0, 1, 5703.7, 1998.2) translate(0,0)" xml:space="preserve">Listing Management</text></g></g></g></g><g mask="url(#mfid6)"><g><g fill="none" stroke="#000" stroke-miterlimit="10"><g font-family="'Segoe UI',swiss,sans-serif" font-size="150" font-style="italic" font-weight="400"><text x="0 115 157 238 322 403 442 517 565 604 669 728" y="0" fill="#000" stroke="none" transform="matrix(1, 0, 0, 1, 5999.7, 2178.2) translate(0,0)" xml:space="preserve">&amp; analytics</text></g></g></g></g><defs><path id="mfid7" d="M0,0 L8406400,0 L8406400,4302300 L0,4302300 Z"/></defs><g mask="url(#mfid4)"><g><g fill="#50e6ff" stroke="#bfbfbf" stroke-linejoin="round" stroke-width="6350" transform="matrix(0.00065617, 0, 0, 0.00065617, 2, 2)"><use fill="none" xlink:href="#mfid7"/></g></g><g><g fill="#0078d4" stroke="#bfbfbf" stroke-linejoin="round" stroke-width="6350" transform="matrix(0.00065617, 0, 0, 0.00065617, 1958, 155)"><rect width="2292100" height="829060" stroke="none"/><defs><path id="mfid8" d="M0,0 L2292100,0 L2292100,829060 L0,829060 Z"/></defs></g><g fill="#0078d4" stroke="#0078d4" stroke-linejoin="round" stroke-width="6350" transform="matrix(0.00065617, 0, 0, 0.00065617, 1958, 155)"><use fill="none" xlink:href="#mfid8"/></g></g></g><g mask="url(#mfid6)"><g><g fill="none" stroke="#000" stroke-miterlimit="10"><g font-family="'Segoe UI Semibold',swiss,sans-serif" font-size="167" font-style="normal" font-weight="400"><text x="0 154 198 277 338 438 510 607 668 728 772 876 920 1020 1117 1218 1261" y="0" fill="#fff" stroke="none" transform="matrix(1, 0, 0, 1, 2100.4, 389) translate(0,0)" xml:space="preserve">Microsoft Cloud</text></g></g></g></g><g mask="url(#mfid6)"><g><g fill="none" stroke="#000" stroke-miterlimit="10"><g font-family="'Segoe UI Semibold',swiss,sans-serif" font-size="167" font-style="normal" font-weight="400"><text x="0 154 241 303 388 477 537 638 682 769 848 937" y="0" fill="#fff" stroke="none" transform="matrix(1, 0, 0, 1, 2241.4, 589) translate(0,0)" xml:space="preserve">Marketplace</text></g></g></g></g><g mask="url(#mfid4)"><g><g fill="#e6e6e6" stroke="#0078d4" stroke-linejoin="round" stroke-width="6350" transform="matrix(0.00065617, 0, 0, 0.00065617, 2, 1193)"><rect width="8254000" height="2487200" stroke="none"/></g></g></g><g mask="url(#mfid6)"><g><g fill="none" stroke="#000" stroke-miterlimit="10"><g font-family="'Segoe UI Semibold',swiss,sans-serif" font-size="167" font-style="normal" font-weight="400"><text x="0 126 223 312 357 454 554 702 746 843 930 990 1034 1134 1231 1277 1335 1435 1497 1645 1690 1748 1848 1910 1954 2055 2152 2253 2297 2341 2413 2510 2599 2661 2733" y="0" fill="#000" stroke="none" transform="matrix(1, 0, 0, 1, 1343.1, 1445.5) translate(0,0)" xml:space="preserve">One nomination form for publishers</text></g></g></g></g><g mask="url(#mfid4)"><g><g fill="#243a5e" stroke="#0078d4" stroke-linejoin="round" stroke-width="6350" transform="matrix(0.00065617, 0, 0, 0.00065617, 141, 1600)"><rect width="3773400" height="1609300" stroke="none"/><defs><path id="mfid9" d="M0,0 L3773400,0 L3773400,1609300 L0,1609300 Z"/></defs></g><g fill="#243a5e" stroke="#002050" stroke-linejoin="round" stroke-width="6350" transform="matrix(0.00065617, 0, 0, 0.00065617, 141, 1600)"><use fill="none" xlink:href="#mfid9"/></g></g></g><g mask="url(#mfid6)"><g><g fill="none" stroke="#000" stroke-miterlimit="10"><g font-family="'Segoe UI Semibold',swiss,sans-serif" font-size="150" font-style="normal" font-weight="400"><text x="0 101 171 259 314 394 434 573 651 707 783 863 917 1007 1046 1124 1195 1275 1318" y="0" fill="#fff" stroke="none" transform="matrix(1, 0, 0, 1, 741.49, 2213.9) translate(0,0)" xml:space="preserve">Azure Marketplace</text></g></g></g></g><g mask="url(#mfid6)"><g><g fill="none" stroke="#000" stroke-miterlimit="10"><g font-family="'Segoe UI',swiss,sans-serif" font-size="150" font-style="italic" font-weight="400"><text x="0 96 135 215 299 380 421 528 601 672 745 784 864 945 1018 1072 1131 1173 1288 1330 1370 1449 1491 1577 1630 1710 1769" y="0" fill="#fff" stroke="none" transform="matrix(1, 0, 0, 1, 494.49, 2393.9) translate(0,0)" xml:space="preserve">Cloud Developers &amp; IT Pros</text></g></g></g></g><g mask="url(#mfid4)"><g><g fill="#243a5e" stroke="#002050" stroke-linejoin="round" stroke-width="6350" transform="matrix(0.00065617, 0, 0, 0.00065617, 2773, 1600)"><rect width="3773400" height="1609300" stroke="none"/><defs><path id="mfid10" d="M0,0 L3773400,0 L3773400,1609300 L0,1609300 Z"/></defs><use fill="none" xlink:href="#mfid10"/></g></g></g><g mask="url(#mfid6)"><g><g fill="none" stroke="#000" stroke-miterlimit="10"><g font-family="'Segoe UI Semibold',swiss,sans-serif" font-size="150" font-style="normal" font-weight="400"><text x="0 101 191 281 363 453 541 596 667 747" y="0" fill="#fff" stroke="none" transform="matrix(1, 0, 0, 1, 3637.7, 2213.9) translate(0,0)" xml:space="preserve">AppSource</text></g></g></g></g><g mask="url(#mfid6)"><g><g fill="none" stroke="#000" stroke-miterlimit="10"><g font-family="'Segoe UI',swiss,sans-serif" font-size="150" font-style="italic" font-weight="400"><text x="0 86 170 229 268 352 425 484 543 585 688 746 819 873 932" y="0" fill="#fff" stroke="none" transform="matrix(1, 0, 0, 1, 3544.7, 2393.9) translate(0,0)" xml:space="preserve">Business Users</text></g></g></g></g><defs><path id="mfid11" d="M0,245360 C-0.00000000031238,109850 109850,-0.00000000031238 245360,-0.00000000062476 C380870,-0.0000000012495 490730,109850 490730,245360 C490730,380870 380870,490730 245360,490730 C109850,490730 -0.0000000015619,380870 0,245360 Z"/></defs><g mask="url(#mfid4)"><g><g fill="#fff" stroke="#002050" stroke-linejoin="round" stroke-width="6350" transform="matrix(0.00065617, 0, 0, 0.00065617, 1218, 1687)"><use fill-rule="evenodd" stroke="none" xlink:href="#mfid11"/><defs><path id="mfid12" d="M0,245360 C-0.00000000031238,109850 109850,-0.00000000031238 245360,-0.00000000062476 C380870,-0.0000000012495 490730,109850 490730,245360 C490730,380870 380870,490730 245360,490730 C109850,490730 -0.0000000015619,380870 0,245360 Z"/></defs></g></g><g><g fill="#fff" stroke="#002050" stroke-linejoin="round" stroke-width="6350" transform="matrix(0.00065617, 0, 0, 0.00065617, 3850, 1687)"><use fill-rule="evenodd" stroke="none" xlink:href="#mfid12"/><defs><path id="mfid13" d="M0,246130 C-0.00000000031335,110190 110190,-0.00000000031335 246130,-0.0000000006267 C382060,-0.0000000012534 492250,110190 492250,246130 C492250,382060 382060,492250 246130,492250 C110190,492250 -0.0000000015668,382060 0,246130 Z"/></defs></g></g><g><g fill="#fff" stroke="#002050" stroke-linejoin="round" stroke-width="6350" transform="matrix(0.00065617, 0, 0, 0.00065617, 6202, 155)"><use fill-rule="evenodd" stroke="none" xlink:href="#mfid13"/><defs><path id="mfid14" d="M134380,176540 C47716,176540 47716,176540 47716,176540 C21423,176540 0,155080 0,128750 C0,102410 21423,81930 47716,81930 C50637,81930 54532,81930 57453,82906 C59401,37064 97379,0 144120,0 C184050,0 218130,28285 227870,66324 C239550,53645 256110,45842 274610,45842 C310640,45842 339850,75103 339850,111190 C339850,147280 310640,175560 274610,175560 C274610,175560 274610,175560 274610,175560 C200600,175560 200600,175560 200600,175560 M115880,195070 C134380,176540 134380,176540 134380,176540 C115880,157030 115880,157030 115880,157030 M219100,157030 C200600,175560 200600,175560 200600,175560 C219100,195070 219100,195070 219100,195070"/></defs></g></g><g><g fill="#fff" stroke="#000" stroke-linecap="square" stroke-miterlimit="8" stroke-width="12700" transform="matrix(0.00065617, 0, 0, 0.00065617, 1268, 1784)"><use fill="none" xlink:href="#mfid14"/><defs><path id="mfid15" d="M105860,26886 C272800,26886 272800,26886 272800,26886 C272800,259080 272800,259080 272800,259080 C0,259080 0,259080 0,259080 C0,26886 0,26886 0,26886 C0,26886 0,26886 0,26886 C57816,26886 57816,26886 57816,26886 M105860,79028 C272800,79028 272800,79028 272800,79028 M0,79028 C54559,79028 54559,79028 54559,79028 M238590,56215 C241040,56215 242670,54586 242670,52142 C242670,50512 241040,48883 238590,48883 C236970,48883 235340,50512 235340,52142 C235340,54586 236970,56215 238590,56215 Z M195440,56215 C197880,56215 199510,54586 199510,52142 C199510,50512 197880,48883 195440,48883 C193810,48883 191360,50512 191360,52142 C191360,54586 193810,56215 195440,56215 Z M152280,56215 C153910,56215 156350,54586 156350,52142 C156350,50512 153910,48883 152280,48883 C149830,48883 148210,50512 148210,52142 C148210,54586 149830,56215 152280,56215 Z M39902,154800 C81432,195530 81432,195530 81432,195530 C122960,154800 122960,154800 122960,154800 M81432,0 C81432,195530 81432,195530 81432,195530"/></defs></g></g><g><g fill="#fff" stroke="#000" stroke-miterlimit="8" stroke-width="12700" transform="matrix(0.00065617, 0, 0, 0.00065617, 3922, 1763)"><use fill="none" xlink:href="#mfid15"/><defs><path id="mfid16" d="M135870,280420 C70934,280420 70934,280420 70934,280420 C70934,239500 70934,239500 70934,239500 C114890,239500 114890,239500 114890,239500 C114890,217550 114890,217550 114890,217550 C156850,217550 156850,217550 156850,217550 C156850,239500 156850,239500 156850,239500 C197820,239500 197820,239500 197820,239500 C197820,280420 197820,280420 197820,280420 L135870,280420 Z M70934,259460 C0,259460 0,259460 0,259460 M197820,259460 C269750,259460 269750,259460 269750,259460 M134870,217550 C134870,189610 134870,189610 134870,189610 M190820,188610 C190820,13971 190820,13971 190820,13971 C190820,5987.5 184830,0 176830,0 C92913,0 92913,0 92913,0 C84921,0 78926,5987.5 78926,13971 C78926,188610 78926,188610 78926,188610 L190820,188610 Z M109900,36923 C159850,36923 159850,36923 159850,36923 M109900,112770 C159850,112770 159850,112770 159850,112770 M109900,149690 C159850,149690 159850,149690 159850,149690"/></defs></g></g><g><g fill="#fff" stroke="#000" stroke-miterlimit="8" stroke-width="12700" transform="matrix(0.00065617, 0, 0, 0.00065617, 6275, 224)"><use fill="none" xlink:href="#mfid16"/><defs><path id="mfid17" d="M3.3333,-4.78 L0,-0.78 L-3.3333,-4.78"/></defs><defs><path id="mfid18" d="M3.3333,-4.78 L0,-0.78 L-3.3333,-4.78"/></defs><defs><path id="mfid19" d="M0,344420 L0,0 L4014200,0 L4014200,344420"/></defs></g></g><g><g fill="#a6a6a6" transform="matrix(0.00065617, 0, 0, 0.00065617, 1380.5, 970.5)"><marker id="mfid20" markerUnits="strokeWidth" orient="align" overflow="visible"><g stroke-linecap="round" stroke-miterlimit="10" transform="rotate(-45)"><use fill="none" stroke="#a6a6a6" xlink:href="#mfid17"/></g></marker><marker id="mfid21" markerUnits="strokeWidth" orient="align" overflow="visible"><g stroke-linecap="round" stroke-miterlimit="10" transform="rotate(-45)"><use fill="none" stroke="#a6a6a6" xlink:href="#mfid18"/></g></marker></g><g fill="#fff" stroke="#a6a6a6" stroke-linejoin="round" stroke-width="19050" marker-end="url(#mfid21)" marker-start="url(#mfid20)" transform="matrix(0.00065617, 0, 0, 0.00065617, 1380.5, 970.5)"><use fill="none" xlink:href="#mfid19"/><defs><path id="mfid22" d="M0,0 L1,413300"/></defs></g></g><g><g fill="#fff" stroke="#a6a6a6" stroke-linejoin="round" stroke-width="19050" transform="matrix(0.00065617, 0, 0, 0.00065617, 2710.5, 699.5)"><use fill="none" xlink:href="#mfid22"/></g></g></g></g></svg></switch><rect width="862.724" height="344.75" x="0" y=".75" class="st1"/></g></g></svg>